<svg width="163" height="24" viewBox="0 0 163 24" fill="none" xmlns="http://www.w3.org/2000/svg">
<path d="M29.9559 12.1256C29.9559 15.4406 27.3624 17.8833 24.1796 17.8833C20.9969 17.8833 18.4034 15.4406 18.4034 12.1256C18.4034 8.7872 20.9969 6.3678 24.1796 6.3678C27.3624 6.3678 29.9559 8.7872 29.9559 12.1256ZM27.4273 12.1256C27.4273 10.054 25.9242 8.63664 24.1796 8.63664C22.4351 8.63664 20.932 10.054 20.932 12.1256C20.932 14.1764 22.4351 15.6145 24.1796 15.6145C25.9242 15.6145 27.4273 14.1738 27.4273 12.1256Z" fill="#EA4335"/>
<path d="M42.4169 12.1256C42.4169 15.4406 39.8235 17.8833 36.6407 17.8833C33.458 17.8833 30.8645 15.4406 30.8645 12.1256C30.8645 8.7898 33.458 6.3678 36.6407 6.3678C39.8235 6.3678 42.4169 8.7872 42.4169 12.1256ZM39.8884 12.1256C39.8884 10.054 38.3853 8.63664 36.6407 8.63664C34.8962 8.63664 33.3931 10.054 33.3931 12.1256C33.3931 14.1764 34.8962 15.6145 36.6407 15.6145C38.3853 15.6145 39.8884 14.1738 39.8884 12.1256Z" fill="#FBBC05"/>
<path d="M54.3588 6.71565V17.0526C54.3588 21.3048 51.851 23.0415 48.8863 23.0415C46.0955 23.0415 44.4159 21.175 43.7824 19.6486L45.9839 18.7322C46.3759 19.6693 47.3364 20.7752 48.8837 20.7752C50.7814 20.7752 51.9574 19.6044 51.9574 17.4005V16.5724H51.8692C51.3032 17.2707 50.2129 17.8807 48.837 17.8807C45.9579 17.8807 43.3203 15.3731 43.3203 12.1463C43.3203 8.89623 45.9579 6.3678 48.837 6.3678C50.2103 6.3678 51.3006 6.97784 51.8692 7.65538H51.9574V6.71825H54.3588V6.71565ZM52.1365 12.1463C52.1365 10.1189 50.784 8.63664 49.0628 8.63664C47.3183 8.63664 45.8567 10.1189 45.8567 12.1463C45.8567 14.153 47.3183 15.6145 49.0628 15.6145C50.784 15.6145 52.1365 14.153 52.1365 12.1463Z" fill="#4285F4"/>
<path d="M58.3177 0.656738V17.5303H55.8515V0.656738H58.3177Z" fill="#34A853"/>
<path d="M67.9283 14.0206L69.891 15.329C69.2575 16.2661 67.731 17.8808 65.0934 17.8808C61.8224 17.8808 59.3795 15.3523 59.3795 12.123C59.3795 8.69898 61.8432 6.36523 64.8105 6.36523C67.7985 6.36523 69.2601 8.74311 69.7378 10.0281L70 10.6823L62.3027 13.8701C62.892 15.0253 63.8084 15.6145 65.0934 15.6145C66.3811 15.6145 67.2741 14.9811 67.9283 14.0206ZM61.8873 11.9491L67.0327 9.81263C66.7497 9.09356 65.8982 8.59254 64.8961 8.59254C63.6111 8.59254 61.8224 9.72696 61.8873 11.9491V11.9491Z" fill="#EA4335"/>
<path d="M9.06801 10.6277V8.18497H17.3001C17.3806 8.6107 17.4221 9.11431 17.4221 9.65946C17.4221 11.4922 16.9211 13.7584 15.3063 15.3731C13.7357 17.0085 11.729 17.8808 9.07061 17.8808C4.1433 17.8808 0 13.8675 0 8.94038C0 4.01331 4.1433 0 9.07061 0C11.7965 0 13.7383 1.06952 15.1973 2.46354L13.4735 4.18724C12.4273 3.20597 11.0099 2.44277 9.06801 2.44277C5.46988 2.44277 2.65576 5.34242 2.65576 8.94038C2.65576 12.5383 5.46988 15.438 9.06801 15.438C11.4019 15.438 12.731 14.5009 13.5825 13.6494C14.2731 12.9589 14.7274 11.9724 14.9065 10.6251L9.06801 10.6277Z" fill="#4285F4"/>
<path d="M80.8779 11.877V18H78.8154V2.35938H84.584C86.2956 2.35938 87.6348 2.79622 88.6016 3.66992C89.5755 4.54362 90.0625 5.7002 90.0625 7.13965C90.0625 8.65788 89.5863 9.82878 88.6338 10.6523C87.6885 11.4688 86.3314 11.877 84.5625 11.877H80.8779ZM80.8779 10.1904H84.584C85.6868 10.1904 86.5319 9.93262 87.1191 9.41699C87.7064 8.89421 88 8.14225 88 7.16113C88 6.23014 87.7064 5.48535 87.1191 4.92676C86.5319 4.36816 85.7262 4.07812 84.7021 4.05664H80.8779V10.1904ZM94.3701 7.78418C95.251 6.7028 96.3968 6.16211 97.8076 6.16211C100.264 6.16211 101.503 7.54785 101.524 10.3193V18H99.5371V10.3086C99.5299 9.4707 99.3366 8.85124 98.957 8.4502C98.5846 8.04915 98.001 7.84863 97.2061 7.84863C96.5615 7.84863 95.9958 8.02051 95.5088 8.36426C95.0218 8.70801 94.6423 9.15918 94.3701 9.71777V18H92.3828V1.5H94.3701V7.78418ZM103.974 12.0811C103.974 10.9424 104.196 9.91829 104.64 9.00879C105.091 8.09928 105.714 7.39746 106.509 6.90332C107.311 6.40918 108.224 6.16211 109.248 6.16211C110.831 6.16211 112.109 6.70996 113.083 7.80566C114.064 8.90137 114.555 10.3587 114.555 12.1777V12.3174C114.555 13.4489 114.336 14.4658 113.899 15.3682C113.47 16.2633 112.85 16.9616 112.041 17.4629C111.239 17.9642 110.315 18.2148 109.27 18.2148C107.694 18.2148 106.416 17.667 105.435 16.5713C104.461 15.4756 103.974 14.0254 103.974 12.2207V12.0811ZM105.972 12.3174C105.972 13.6064 106.269 14.6413 106.863 15.4219C107.465 16.2025 108.267 16.5928 109.27 16.5928C110.279 16.5928 111.081 16.1989 111.676 15.4111C112.27 14.6162 112.567 13.5062 112.567 12.0811C112.567 10.8063 112.263 9.77507 111.654 8.9873C111.053 8.19238 110.251 7.79492 109.248 7.79492C108.267 7.79492 107.476 8.18522 106.874 8.96582C106.272 9.74642 105.972 10.8636 105.972 12.3174ZM119.743 3.5625V6.37695H121.913V7.91309H119.743V15.1211C119.743 15.5866 119.84 15.9375 120.033 16.1738C120.227 16.403 120.556 16.5176 121.021 16.5176C121.251 16.5176 121.566 16.4746 121.967 16.3887V18C121.444 18.1432 120.936 18.2148 120.441 18.2148C119.553 18.2148 118.884 17.9463 118.433 17.4092C117.981 16.8721 117.756 16.1094 117.756 15.1211V7.91309H115.64V6.37695H117.756V3.5625H119.743ZM123.503 12.0811C123.503 10.9424 123.725 9.91829 124.169 9.00879C124.62 8.09928 125.243 7.39746 126.038 6.90332C126.84 6.40918 127.753 6.16211 128.777 6.16211C130.36 6.16211 131.638 6.70996 132.612 7.80566C133.593 8.90137 134.084 10.3587 134.084 12.1777V12.3174C134.084 13.4489 133.866 14.4658 133.429 15.3682C132.999 16.2633 132.38 16.9616 131.57 17.4629C130.768 17.9642 129.844 18.2148 128.799 18.2148C127.223 18.2148 125.945 17.667 124.964 16.5713C123.99 15.4756 123.503 14.0254 123.503 12.2207V12.0811ZM125.501 12.3174C125.501 13.6064 125.798 14.6413 126.393 15.4219C126.994 16.2025 127.796 16.5928 128.799 16.5928C129.809 16.5928 130.611 16.1989 131.205 15.4111C131.799 14.6162 132.097 13.5062 132.097 12.0811C132.097 10.8063 131.792 9.77507 131.184 8.9873C130.582 8.19238 129.78 7.79492 128.777 7.79492C127.796 7.79492 127.005 8.18522 126.403 8.96582C125.802 9.74642 125.501 10.8636 125.501 12.3174ZM143.344 14.917C143.344 14.3799 143.14 13.9645 142.731 13.6709C142.33 13.3701 141.625 13.1123 140.615 12.8975C139.613 12.6826 138.814 12.4248 138.22 12.124C137.632 11.8232 137.196 11.4652 136.909 11.0498C136.63 10.6344 136.49 10.1403 136.49 9.56738C136.49 8.61491 136.891 7.80924 137.693 7.15039C138.503 6.49154 139.534 6.16211 140.787 6.16211C142.105 6.16211 143.172 6.50228 143.988 7.18262C144.812 7.86296 145.224 8.73307 145.224 9.79297H143.226C143.226 9.2487 142.993 8.77962 142.527 8.38574C142.069 7.99186 141.489 7.79492 140.787 7.79492C140.064 7.79492 139.498 7.95247 139.09 8.26758C138.682 8.58268 138.478 8.99447 138.478 9.50293C138.478 9.98275 138.667 10.3444 139.047 10.5879C139.426 10.8314 140.11 11.0641 141.099 11.2861C142.094 11.5081 142.9 11.7731 143.516 12.0811C144.132 12.389 144.586 12.7614 144.88 13.1982C145.181 13.6279 145.331 14.1543 145.331 14.7773C145.331 15.8158 144.916 16.6501 144.085 17.2803C143.254 17.9033 142.176 18.2148 140.852 18.2148C139.921 18.2148 139.097 18.0501 138.381 17.7207C137.665 17.3913 137.103 16.9329 136.694 16.3457C136.293 15.7513 136.093 15.1104 136.093 14.4229H138.08C138.116 15.0889 138.381 15.6188 138.875 16.0127C139.376 16.3994 140.035 16.5928 140.852 16.5928C141.604 16.5928 142.205 16.4424 142.656 16.1416C143.115 15.8337 143.344 15.4255 143.344 14.917Z" fill="#636466"/>
</svg>
