<svg width="70" height="24" viewBox="0 0 70 24" fill="none" xmlns="http://www.w3.org/2000/svg">
<path d="M29.9559 12.1256C29.9559 15.4406 27.3624 17.8833 24.1796 17.8833C20.9969 17.8833 18.4034 15.4406 18.4034 12.1256C18.4034 8.7872 20.9969 6.3678 24.1796 6.3678C27.3624 6.3678 29.9559 8.7872 29.9559 12.1256ZM27.4273 12.1256C27.4273 10.054 25.9242 8.63664 24.1796 8.63664C22.4351 8.63664 20.932 10.054 20.932 12.1256C20.932 14.1764 22.4351 15.6145 24.1796 15.6145C25.9242 15.6145 27.4273 14.1738 27.4273 12.1256Z" fill="#EA4335"/>
<path d="M42.4169 12.1256C42.4169 15.4406 39.8235 17.8833 36.6407 17.8833C33.458 17.8833 30.8645 15.4406 30.8645 12.1256C30.8645 8.7898 33.458 6.3678 36.6407 6.3678C39.8235 6.3678 42.4169 8.7872 42.4169 12.1256ZM39.8884 12.1256C39.8884 10.054 38.3853 8.63664 36.6407 8.63664C34.8962 8.63664 33.3931 10.054 33.3931 12.1256C33.3931 14.1764 34.8962 15.6145 36.6407 15.6145C38.3853 15.6145 39.8884 14.1738 39.8884 12.1256Z" fill="#FBBC05"/>
<path d="M54.3588 6.71565V17.0526C54.3588 21.3048 51.851 23.0415 48.8863 23.0415C46.0955 23.0415 44.4159 21.175 43.7824 19.6486L45.9839 18.7322C46.3759 19.6693 47.3364 20.7752 48.8837 20.7752C50.7814 20.7752 51.9574 19.6044 51.9574 17.4005V16.5724H51.8692C51.3032 17.2707 50.2129 17.8807 48.837 17.8807C45.9579 17.8807 43.3203 15.3731 43.3203 12.1463C43.3203 8.89623 45.9579 6.3678 48.837 6.3678C50.2103 6.3678 51.3006 6.97784 51.8692 7.65538H51.9574V6.71825H54.3588V6.71565ZM52.1365 12.1463C52.1365 10.1189 50.784 8.63664 49.0628 8.63664C47.3183 8.63664 45.8567 10.1189 45.8567 12.1463C45.8567 14.153 47.3183 15.6145 49.0628 15.6145C50.784 15.6145 52.1365 14.153 52.1365 12.1463Z" fill="#4285F4"/>
<path d="M58.3177 0.656738V17.5303H55.8515V0.656738H58.3177Z" fill="#34A853"/>
<path d="M67.9283 14.0206L69.891 15.329C69.2575 16.2661 67.731 17.8808 65.0934 17.8808C61.8224 17.8808 59.3795 15.3523 59.3795 12.123C59.3795 8.69898 61.8432 6.36523 64.8105 6.36523C67.7985 6.36523 69.2601 8.74311 69.7378 10.0281L70 10.6823L62.3027 13.8701C62.892 15.0253 63.8084 15.6145 65.0934 15.6145C66.3811 15.6145 67.2741 14.9811 67.9283 14.0206ZM61.8873 11.9491L67.0327 9.81263C66.7497 9.09356 65.8982 8.59254 64.8961 8.59254C63.6111 8.59254 61.8224 9.72696 61.8873 11.9491V11.9491Z" fill="#EA4335"/>
<path d="M9.06801 10.6277V8.18497H17.3001C17.3806 8.6107 17.4221 9.11431 17.4221 9.65946C17.4221 11.4922 16.9211 13.7584 15.3063 15.3731C13.7357 17.0085 11.729 17.8808 9.07061 17.8808C4.1433 17.8808 0 13.8675 0 8.94038C0 4.01331 4.1433 0 9.07061 0C11.7965 0 13.7383 1.06952 15.1973 2.46354L13.4735 4.18724C12.4273 3.20597 11.0099 2.44277 9.06801 2.44277C5.46988 2.44277 2.65576 5.34242 2.65576 8.94038C2.65576 12.5383 5.46988 15.438 9.06801 15.438C11.4019 15.438 12.731 14.5009 13.5825 13.6494C14.2731 12.9589 14.7274 11.9724 14.9065 10.6251L9.06801 10.6277Z" fill="#4285F4"/>
</svg>
